<svg xmlns="http://www.w3.org/2000/svg" aria-hidden="true" style="position:absolute;width:0;height:0;overflow:hidden">
  <defs>
    <symbol id="icon-pattern13" viewBox="0 0 32 32">
      <path d="M29.299 14.03 22.482 2.832A1.996 1.996 0 0 0 20.499 1c-1.103 0-2 .897-2 2 0 .41.125.792.337 1.109l-2.838 4.459-2.838-4.459c.213-.318.338-.7.338-1.109 0-1.103-.897-2-2-2s-2 .897-2 2c0 .416.129.803.347 1.123L3.882 14.215A1.978 1.978 0 0 0 2.999 14c-1.103 0-2 .897-2 2 0 1 .74 1.824 1.7 1.97l6.817 11.198A1.996 1.996 0 0 0 11.499 31c1.103 0 2-.897 2-2 0-.41-.125-.791-.338-1.11l2.838-4.459 2.837 4.459A2.002 2.002 0 0 0 20.499 31a1.996 1.996 0 0 0 1.983-1.832l6.816-11.198c.96-.145 1.7-.969 1.7-1.97s-.741-1.824-1.7-1.97zM21 27.071v-9.142c.7-.182 1.247-.73 1.429-1.429h4.642a2 2 0 0 0 1.139 1.336l-6.088 10.003A1.992 1.992 0 0 0 21 27.072zm-11.121.767L3.791 17.835a2.002 2.002 0 0 0 1.139-1.336h4.642c.182.7.729 1.247 1.429 1.429v9.142a1.992 1.992 0 0 0-1.121.767zM11 4.929v9.142c-.7.182-1.247.729-1.429 1.429H4.929a2.01 2.01 0 0 0-.276-.623l5.963-10.092c.122.061.249.109.383.144zM11.5 17a1 1 0 1 1 0-2 1 1 0 0 1 0 2zm7.071-1.5h-5.142a1.998 1.998 0 0 0-.267-.61l2.837-4.459 2.837 4.459c-.122.184-.209.39-.267.61zm-5.142 1h5.142c.057.219.144.426.267.61l-2.837 4.459-2.838-4.459c.123-.183.21-.39.267-.61zM19.5 16a1 1 0 1 1 2 0 1 1 0 0 1-2 0zm7.571-.5h-4.642A1.997 1.997 0 0 0 21 14.071V4.929a1.997 1.997 0 0 0 1.122-.768l6.088 10.002a2.002 2.002 0 0 0-1.139 1.336zM20.5 2a1.001 1.001 0 1 1-1 1c0-.551.448-1 1-1zm-.901 2.776c.127.064.26.117.401.154v9.142a2 2 0 0 0-.401.153l-3.006-4.724 3.006-4.724zm-7.198 9.449a1.92 1.92 0 0 0-.401-.153V4.93c.14-.037.274-.088.401-.154L15.407 9.5l-3.006 4.725zM11.5 2a1.001 1.001 0 1 1-1 1c0-.551.448-1 1-1zM2 16a1.001 1.001 0 1 1 1 1c-.551 0-1-.448-1-1zm9.5 14a1 1 0 1 1 0-2 1 1 0 0 1 0 2zm.901-2.776A2.105 2.105 0 0 0 12 27.07v-9.142c.14-.037.274-.088.401-.154l3.006 4.724-3.006 4.724zm7.198-9.448c.127.064.26.116.401.154v9.142c-.14.037-.274.088-.401.154l-3.006-4.724 3.006-4.724zM20.5 30a1 1 0 1 1 0-2 1 1 0 0 1 0 2zM29 17a1 1 0 1 1 0-2 1 1 0 0 1 0 2zM3 5c1.103 0 2-.897 2-2s-.897-2-2-2-2 .897-2 2 .897 2 2 2zm0-3c.551 0 1 .449 1 1s-.449 1-1 1-1-.449-1-1 .449-1 1-1zM29 1c-1.103 0-2 .897-2 2s.897 2 2 2 2-.897 2-2-.897-2-2-2zm0 3a1.001 1.001 0 0 1 0-2 1.001 1.001 0 0 1 0 2zM3 27c-1.103 0-2 .897-2 2s.897 2 2 2 2-.897 2-2-.897-2-2-2zm0 3a1.001 1.001 0 0 1 0-2 1.001 1.001 0 0 1 0 2zM29 27c-1.103 0-2 .897-2 2s.897 2 2 2 2-.897 2-2-.897-2-2-2zm0 3a1 1 0 1 1 0-2 1 1 0 0 1 0 2z"/>
    </symbol>
    <symbol id="icon-pattern14" viewBox="0 0 32 32">
      <path d="M28.509 0a3.495 3.495 0 0 0-3.069 5.155l-5.719 5.719a4.62 4.62 0 0 0-5.699-.001L9.56 6.411c.205-.346.33-.744.33-1.175 0-1.284-1.044-2.327-2.327-2.327S5.236 3.953 5.236 5.236 6.28 7.563 7.563 7.563c.431 0 .829-.125 1.175-.33l4.462 4.462a4.63 4.63 0 0 0 0 5.699l-7.368 7.369a3.472 3.472 0 0 0-2.341-.909C1.566 23.854 0 25.42 0 27.345s1.566 3.491 3.491 3.491a3.495 3.495 0 0 0 3.069-5.155l7.464-7.464c.643.5 1.42.835 2.268.942v5.911a3.494 3.494 0 0 0-2.909 3.439c0 1.925 1.566 3.491 3.491 3.491s3.491-1.566 3.491-3.491a3.495 3.495 0 0 0-2.909-3.439v-5.911a4.63 4.63 0 0 0 2.268-.942l4.462 4.462a2.3 2.3 0 0 0-.33 1.175c0 1.284 1.044 2.327 2.327 2.327s2.327-1.044 2.327-2.327-1.044-2.327-2.327-2.327c-.431 0-.829.125-1.175.33l-4.462-4.462a4.63 4.63 0 0 0 0-5.699l5.623-5.623a3.47 3.47 0 0 0 2.341.909c1.925 0 3.491-1.566 3.491-3.491S30.435 0 28.51 0zM6.4 5.236a1.165 1.165 0 0 1 2.328 0 1.165 1.165 0 0 1-2.328 0zM3.491 29.673c-1.284 0-2.327-1.044-2.327-2.327s1.044-2.327 2.327-2.327 2.327 1.044 2.327 2.327-1.044 2.327-2.327 2.327zM19.2 28.509c0 1.284-1.044 2.327-2.327 2.327s-2.327-1.044-2.327-2.327 1.044-2.327 2.327-2.327 2.327 1.044 2.327 2.327zm-2.327-10.473c-1.925 0-3.491-1.566-3.491-3.491s1.566-3.491 3.491-3.491 3.491 1.566 3.491 3.491-1.566 3.491-3.491 3.491zm10.472 5.819a1.165 1.165 0 0 1-2.328 0 1.165 1.165 0 0 1 2.328 0zm1.164-18.037c-1.284 0-2.327-1.044-2.327-2.327s1.044-2.327 2.327-2.327 2.327 1.044 2.327 2.327-1.044 2.327-2.327 2.327z"/>
    </symbol>
    <symbol id="icon-pattern15" viewBox="0 0 32 32">
      <path d="M27 22.25a3.699 3.699 0 0 0-2.215.739l.01-.007-3.299-2.998a6.632 6.632 0 0 0 1.313-3.977 6.652 6.652 0 0 0-1.525-4.249l.009.011 3.644-3.643a3.76 3.76 0 1 0-1.053-1.048l-.009-.014-3.643 3.643a6.656 6.656 0 0 0-4.244-1.517c-.937 0-1.828.192-2.638.54l.044-.017-1.032-1.874a3.729 3.729 0 1 0-2.441.91h.022-.001a3.674 3.674 0 0 0 1.133-.194l-.026.008 1.037 1.883a6.796 6.796 0 0 0-2.894 5.553V16c.01.697.125 1.364.33 1.99l-.013-.047-1.423.603a3.721 3.721 0 1 0 .587 1.356l.004.024 1.419-.602c1.167 2.093 3.367 3.485 5.892 3.485 1.73 0 3.308-.654 4.5-1.728l-.006.005 3.309 3.007a3.675 3.675 0 0 0-.539 1.906V26a3.75 3.75 0 1 0 3.75-3.75zM7.69 5a2.25 2.25 0 1 1 2.25 2.25A2.253 2.253 0 0 1 7.69 5zM5 22.92a2.249 2.249 0 1 1 2.25-2.25A2.253 2.253 0 0 1 5 22.92zM27 2.75A2.25 2.25 0 1 1 24.75 5 2.253 2.253 0 0 1 27 2.75zM10.69 16v-.001a5.31 5.31 0 1 1 5.309 5.309A5.316 5.316 0 0 1 10.689 16zM27 28.25A2.25 2.25 0 1 1 29.25 26 2.253 2.253 0 0 1 27 28.25z"/>
    </symbol>
    <symbol id="icon-pattern16" viewBox="0 0 32 32">
      <path d="M25 22a2.994 2.994 0 0 0-2.081.841l.001-.001L10 16.36a1.62 1.62 0 0 0-.002-.731l.002.011 13-6.48a3 3 0 1 0-1-2.156V7a2.022 2.022 0 0 0 .001.368L22 7.36 9 13.84a3 3 0 1 0 .001 4.319L9 18.16l13 6.48a2.022 2.022 0 0 0 .001.368L22 25a3 3 0 1 0 3-3z"/>
    </symbol>
    <symbol id="icon-close" viewBox="0 0 26 32">
      <path d="M4.579 4.579a1.065 1.065 0 0 1 1.508 0l6.712 6.712 6.712-6.712a1.065 1.065 0 1 1 1.508 1.508l-6.712 6.712 6.712 6.712a1.065 1.065 0 1 1-1.508 1.508l-6.712-6.712-6.712 6.712a1.065 1.065 0 1 1-1.508-1.508l6.712-6.712-6.712-6.712a1.065 1.065 0 0 1 0-1.508z"/>
    </symbol>
    <symbol id="icon-address" viewBox="0 0 16 32">
      <path d="M7.945 0A7.912 7.912 0 0 0 0 7.945c0 1.766.618 3.531 1.677 4.855l6.179 8.474 6.356-8.474a8.403 8.403 0 0 0 1.589-4.855C15.801 3.531 12.27 0 7.944 0zm0 3.443c2.472 0 4.502 1.942 4.502 4.502 0 2.472-2.03 4.502-4.502 4.502-2.56 0-4.502-2.03-4.502-4.502 0-2.56 1.942-4.502 4.502-4.502zM12.359 24.188c0 .78-1.976 1.412-4.414 1.412s-4.414-.632-4.414-1.412c0-.78 1.976-1.412 4.414-1.412s4.414.632 4.414 1.412z"/>
    </symbol>
    <symbol id="icon-pattern1" viewBox="0 0 26 32">
      <path d="M25.212 8.262a2.848 2.848 0 0 0-2.831-2.832c-.659 0-1.241.233-1.707.582l-1.125-1.125a2.828 2.828 0 0 0 .582-1.707c0-1.552-1.28-2.832-2.831-2.832s-2.832 1.28-2.832 2.832c0 .349.078.698.194 1.008l-1.939 1.047c-.504-.698-1.319-1.125-2.25-1.125-.97 0-1.784.465-2.327 1.202L5.819 4.11c.116-.31.155-.621.155-.931A2.848 2.848 0 0 0 3.142.347C1.668.386.388 1.666.388 3.217A2.807 2.807 0 0 0 2.832 6.01v3.762a2.808 2.808 0 0 0-2.444 2.793c0 1.552 1.28 2.832 2.832 2.832s2.832-1.28 2.832-2.832c0-.504-.155-1.008-.388-1.396l2.87-2.211a2.784 2.784 0 0 0 1.978.815c.388 0 .737-.078 1.086-.233l1.823 3.142a2.795 2.795 0 0 0-1.086 2.211c0 .427.078.815.271 1.164l-7.253 4.538c-.504-.621-1.28-1.009-2.172-1.009-1.552 0-2.832 1.28-2.832 2.831s1.319 2.793 2.87 2.793c1.435 0 2.599-1.086 2.793-2.444h6.322a2.808 2.808 0 0 0 2.793 2.444 2.848 2.848 0 0 0 2.832-2.831 3.36 3.36 0 0 0-.155-.931l2.327-1.202a2.795 2.795 0 0 0 2.327 1.202 2.847 2.847 0 0 0 2.831-2.831c0-1.435-1.086-2.599-2.444-2.793v-4.771c1.28-.194 2.366-1.396 2.366-2.793zm-.737 0c0 1.125-.931 2.056-2.056 2.056s-2.056-.931-2.056-2.056.931-2.056 2.056-2.056c1.125-.039 2.056.892 2.056 2.056zm-7.176-7.137c1.125 0 2.056.931 2.056 2.056s-.931 2.056-2.056 2.056a2.06 2.06 0 0 1-1.823-1.086c-.155-.31-.271-.621-.271-1.008 0-1.086.931-2.017 2.095-2.017zM7.835 6.012a2.785 2.785 0 0 0 .233 2.327l-2.87 2.211a2.694 2.694 0 0 0-1.59-.776V6.012c.815-.116 1.513-.543 1.939-1.164l2.288 1.164zm-6.71-2.793c0-1.125.931-2.056 2.056-2.056s2.056.931 2.056 2.056-.931 2.056-2.056 2.056a2.07 2.07 0 0 1-2.056-2.056zm2.094 11.404c-1.125 0-2.056-.931-2.056-2.056s.931-2.056 2.056-2.056 2.056.931 2.056 2.056-.931 2.056-2.056 2.056zm7.254-5.624c-.659 0-1.241-.31-1.629-.815a2.008 2.008 0 0 1-.427-1.241c0-1.125.931-2.056 2.056-2.056s2.056.931 2.056 2.056a2.02 2.02 0 0 1-2.056 2.056c-.039 0-.039 0 0 0zm1.745.155a2.795 2.795 0 0 0 1.086-2.211c0-.349-.078-.698-.194-1.008l1.939-1.047a2.773 2.773 0 0 0 2.25 1.164c.659 0 1.241-.233 1.707-.582l1.125 1.125a2.828 2.828 0 0 0-.582 1.707 2.807 2.807 0 0 0 2.444 2.793v4.81a2.895 2.895 0 0 0-1.939 1.164l-2.288-1.202c.116-.31.155-.621.155-.931a2.848 2.848 0 0 0-2.832-2.832c-.388 0-.737.078-1.086.233l-1.784-3.181zm2.909 3.685a2.07 2.07 0 0 1 2.056 2.056c0 .349-.078.659-.233.931-.349.659-1.047 1.125-1.823 1.125a2.036 2.036 0 0 1-1.745-.97 2.083 2.083 0 0 1-.31-1.086c0-1.125.892-2.056 2.056-2.056zM3.219 24.475c-1.125 0-2.056-.931-2.056-2.056s.931-2.056 2.056-2.056a2.07 2.07 0 0 1 2.056 2.056 2.07 2.07 0 0 1-2.056 2.056zm11.908 0a2.07 2.07 0 0 1-2.056-2.056 2.07 2.07 0 0 1 2.056-2.056c.815 0 1.474.465 1.823 1.125.155.271.233.621.233.931a2.07 2.07 0 0 1-2.056 2.056zm2.289-3.685a2.795 2.795 0 0 0-2.327-1.202 2.807 2.807 0 0 0-2.793 2.444H6.012a2.571 2.571 0 0 0-.233-.776l7.176-4.499c.504.621 1.28 1.009 2.172 1.009.97 0 1.784-.465 2.327-1.202l2.288 1.202c-.116.31-.155.621-.155.931 0 .349.078.659.155.931l-2.327 1.164zm7.059-2.133c0 1.125-.931 2.056-2.056 2.056s-2.056-.931-2.056-2.056.931-2.056 2.056-2.056 2.056.892 2.056 2.056z"/>
      <path d="M15.127 21.217c-.659 0-1.202.543-1.202 1.202s.543 1.202 1.202 1.202c.659 0 1.202-.543 1.202-1.202 0-.698-.543-1.202-1.202-1.202zm0 1.629c-.233 0-.427-.194-.427-.427s.194-.427.427-.427c.233 0 .427.194.427.427s-.194.427-.427.427zM15.127 16.097c.659 0 1.202-.543 1.202-1.202s-.543-1.202-1.202-1.202c-.659 0-1.202.543-1.202 1.202s.543 1.202 1.202 1.202zm0-1.629c.233 0 .427.194.427.427s-.194.427-.427.427c-.233 0-.427-.194-.427-.427s.194-.427.427-.427zM22.381 9.425c.659 0 1.202-.543 1.202-1.202s-.543-1.202-1.202-1.202c-.659 0-1.202.543-1.202 1.202.039.659.543 1.202 1.202 1.202zm0-1.629c.233 0 .427.194.427.427s-.194.427-.427.427c-.233 0-.427-.194-.427-.427s.194-.427.427-.427zM3.219 11.365c-.659 0-1.202.543-1.202 1.202s.543 1.202 1.202 1.202c.659 0 1.202-.543 1.202-1.202-.039-.659-.543-1.202-1.202-1.202zm0 1.629c-.233 0-.427-.194-.427-.427s.194-.427.427-.427c.233 0 .427.194.427.427s-.194.427-.427.427zM10.473 5.741c-.659 0-1.202.543-1.202 1.202s.543 1.202 1.202 1.202c.659 0 1.202-.543 1.202-1.202s-.543-1.202-1.202-1.202zm0 1.629c-.233 0-.427-.194-.427-.427s.194-.427.427-.427c.233 0 .427.194.427.427s-.194.427-.427.427zM21.217 18.657c0 .659.543 1.202 1.202 1.202s1.202-.543 1.202-1.202c0-.659-.543-1.202-1.202-1.202-.698 0-1.202.543-1.202 1.202zm1.629 0c0 .233-.194.427-.427.427s-.427-.194-.427-.427c0-.233.194-.427.427-.427s.427.194.427.427zM4.383 3.219c0-.659-.543-1.202-1.202-1.202s-1.202.543-1.202 1.202c0 .659.543 1.202 1.202 1.202.698-.039 1.202-.543 1.202-1.202zm-1.629 0c0-.233.194-.427.427-.427s.427.194.427.427c0 .233-.194.427-.427.427s-.427-.194-.427-.427zM17.299 4.383c.659 0 1.202-.543 1.202-1.202s-.543-1.202-1.202-1.202c-.659 0-1.202.543-1.202 1.202 0 .698.543 1.202 1.202 1.202zm0-1.629c.233 0 .427.194.427.427s-.194.427-.427.427a.43.43 0 0 1-.427-.427c-.039-.233.194-.427.427-.427zM3.219 21.217c-.659 0-1.202.543-1.202 1.202s.543 1.202 1.202 1.202c.659 0 1.202-.543 1.202-1.202-.039-.698-.543-1.202-1.202-1.202zm0 1.629c-.233 0-.427-.194-.427-.427s.194-.427.427-.427c.233 0 .427.194.427.427s-.194.427-.427.427z"/>
    </symbol>
    <symbol id="icon-pattern2" viewBox="0 0 26 32">
      <path d="M20.215 6.389c.264.175.579.278.918.278.919 0 1.667-.748 1.667-1.667s-.748-1.667-1.667-1.667-1.667.748-1.667 1.667c0 .339.103.654.278.918l-2.778 2.778-2.778-2.778c.175-.264.278-.579.278-.918 0-.919-.748-1.667-1.667-1.667S11.132 4.081 11.132 5c0 .339.103.654.278.918L8.632 8.696 5.854 5.918c.175-.264.278-.579.278-.918 0-.919-.748-1.667-1.667-1.667S2.798 4.081 2.798 5s.748 1.667 1.667 1.667c.041 0 .079-.009.119-.012l1.998 4.09-1.199 1.199a1.656 1.656 0 0 0-.918-.278c-.919 0-1.667.748-1.667 1.667S3.546 15 4.465 15a1.67 1.67 0 0 0 1.633-1.333h1.911l1.308 2.677-3.934 3.934A1.656 1.656 0 0 0 4.465 20c-.919 0-1.667.748-1.667 1.667s.748 1.667 1.667 1.667 1.667-.748 1.667-1.667c0-.041-.009-.079-.012-.119l4.633-2.263.692 1.417a1.655 1.655 0 0 0-.313.965c0 .919.748 1.667 1.667 1.667s1.667-.748 1.667-1.667a1.67 1.67 0 0 0-1.333-1.633v-1.911l2.677-1.308 3.934 3.934a1.656 1.656 0 0 0-.278.918c0 .919.748 1.667 1.667 1.667s1.667-.748 1.667-1.667S22.052 20 21.133 20c-.15 0-.293.026-.432.064l-2.351-4.489 1.818-.888c.273.196.605.313.965.313.919 0 1.667-.748 1.667-1.667s-.748-1.667-1.667-1.667c-.339 0-.654.103-.918.278l-2.778-2.778 2.778-2.778zM21.133 4c.551 0 1 .449 1 1s-.449 1-1 1-1-.449-1-1 .449-1 1-1zm-7.529 9 1.735-1.735.909 1.735h-2.644zm2.994.667.843 1.61-1.496.731-2.341-2.341h2.994zm-3.465-1.138V7.052l1.883 3.594-1.883 1.883zm.445-6.064c.047-.025.095-.047.139-.076l2.778 2.778-.985.985-1.932-3.687zM12.8 4c.551 0 1 .449 1 1s-.449 1-1 1-1-.449-1-1 .449-1 1-1zm-.918 2.389c.175.116.372.201.584.244v5.896L9.104 9.167l2.778-2.778zM11.995 13H8.426l-1.035-2.12 1.242-1.242L11.995 13zM3.466 5c0-.551.449-1 1-1s1 .449 1 1-.449 1-1 1-1-.449-1-1zm1.77 1.469c.049-.026.101-.049.147-.08l2.778 2.778-1.08 1.08-1.845-3.778zm-.77 7.864c-.551 0-1-.449-1-1s.449-1 1-1 1 .449 1 1-.449 1-1 1zM6.099 13a1.644 1.644 0 0 0-.244-.584l1.037-1.037.792 1.622H6.099zm2.653.667h3.243l-2.179 2.179-1.064-2.179zm3.714.471v3.569l-1.406.687-.935-1.914 2.341-2.341zm-8 8.529c-.551 0-1-.449-1-1s.449-1 1-1 1 .449 1 1-.449 1-1 1zm1.469-1.771c-.026-.049-.049-.101-.08-.147l3.772-3.772.834 1.708-4.526 2.211zm7.865.771c0 .551-.449 1-1 1s-1-.449-1-1 .449-1 1-1 1 .449 1 1zm-1.334-1.633c-.183.037-.351.11-.506.202l-.607-1.243 1.113-.544v1.585zm.667-2.653v-3.243l2.179 2.179-2.179 1.064zm9 4.286c0 .551-.449 1-1 1s-1-.449-1-1 .449-1 1-1 1 .449 1 1zm-2.242-1.714-3.447-3.447 1.307-.638 2.14 4.086zm-2.541-6.286h2.15c.037.183.11.351.202.506l-1.661.811-.69-1.318zm3.783-1.334c.551 0 1 .449 1 1s-.449 1-1 1-1-.449-1-1 .449-1 1-1zm-1.389.083A1.651 1.651 0 0 0 19.5 13h-2.499l-1.168-2.229 1.133-1.133 2.778 2.778z"/>
    </symbol>
    <symbol id="icon-pattern3" viewBox="0 0 26 32">
      <path d="M23.04 16.128c-.23 0-.435.077-.563.23l-5.427-3.584 1.664-3.328a.699.699 0 0 0 .23.026c.435 0 .768-.333.768-.768s-.333-.768-.768-.768a.732.732 0 0 0-.563.256l-4.838-3.405c.026-.051.026-.102.026-.179 0-.435-.333-.768-.768-.768s-.768.333-.768.768c0 .051.026.102.026.154L3.227 8.295c-.154-.205-.384-.358-.666-.358-.435 0-.768.333-.768.768s.333.768.768.768a.7.7 0 0 0 .538-.23l4.864 3.405c-.026.051-.026.102-.026.154a.72.72 0 0 0 .333.614l-1.382 2.739c-.077-.026-.154-.026-.23-.026-.435 0-.768.333-.768.768s.333.768.768.768c.23 0 .41-.102.563-.23l4.89 3.251a.611.611 0 0 0-.077.307c0 .435.333.768.768.768s.768-.333.768-.768c0-.051-.026-.102-.026-.154l8.832-3.533c.154.205.384.358.666.358.435 0 .768-.333.768-.768s-.333-.768-.768-.768zm-4.557-6.81-1.638 3.277-1.766-1.178 3.302-2.202c.026.051.077.077.102.102zM12.8 5.376a.765.765 0 0 0 .64-.333l4.787 3.354c-.026.102-.051.205-.051.307s.026.23.077.333l-3.405 2.253-3.405-2.278a.611.611 0 0 0 .077-.307.763.763 0 0 0-.307-.614l1.357-2.739a.699.699 0 0 0 .23.026zm1.818 6.042-1.254.845c-.154-.128-.333-.23-.563-.23-.077 0-.154 0-.205.051l-1.382-2.739.102-.102 3.302 2.176zM3.302 8.55l8.858-3.558a.602.602 0 0 0 .205.23l-1.382 2.739c-.077-.026-.154-.026-.23-.026-.435 0-.768.333-.768.768s.333.768.768.768c.077 0 .154 0 .205-.051l1.382 2.739c-.077.077-.154.154-.205.23L3.303 8.856c.026-.051.026-.102.026-.154s-.026-.102-.026-.154zm4.736 3.866L3.532 9.242l8.525 3.405c-.026.051-.026.102-.026.154 0 .435.333.768.768.768s.768-.333.768-.768a.684.684 0 0 0-.077-.307l1.357-.896 1.894 1.254-1.971 3.917h-3.942l-1.664-3.354a.763.763 0 0 0 .307-.614.755.755 0 0 0-.768-.768c-.282 0-.512.154-.666.384zm-.921 3.866 1.357-2.739c.077.026.154.026.23.026s.154 0 .23-.026l1.613 3.226H7.424c-.026-.205-.154-.358-.307-.486zm5.145 4.172-4.89-3.251a.364.364 0 0 0 .051-.179v-.026H10.7l1.664 3.354-.102.102zm.538-.23c-.077 0-.154 0-.23.026l-1.613-3.226h3.686L13.03 20.25c-.077-.026-.154-.026-.23-.026zm.666.384a.602.602 0 0 0-.205-.23l1.664-3.354h7.347s.026.026.026.051l-8.832 3.533zm8.806-3.814h-7.219l1.894-3.789 5.402 3.584a.854.854 0 0 0-.077.205z"/>
    </symbol>
    <symbol id="icon-pattern4" viewBox="0 0 26 32">
      <path d="M23.04 7.936a.77.77 0 0 0-.691.435l-5.325-1.51V5.376a.795.795 0 0 0 .64-.768c0-.435-.333-.768-.768-.768s-.768.333-.768.768v.077l-3.328.947-3.328-.947v-.077c0-.435-.333-.768-.768-.768s-.768.333-.768.768c0 .102.026.23.077.307l-4.89 3.251c-.154-.128-.333-.23-.563-.23-.435 0-.768.333-.768.768s.333.768.768.768c.23 0 .41-.102.563-.23l5.427 3.61-.947 1.894-4.378 1.741c-.154-.205-.384-.358-.666-.358-.435 0-.768.333-.768.768s.333.768.768.768c.333 0 .589-.205.717-.512l2.79.614-1.229 2.458c-.077-.026-.154-.026-.23-.026-.435 0-.768.333-.768.768s.333.768.768.768.768-.333.768-.768a.684.684 0 0 0-.077-.307l3.43-2.278 11.494 2.56v.051c0 .435.333.768.768.768s.768-.333.768-.768-.333-.768-.768-.768c-.128 0-.282.026-.384.102l-5.274-6.323.998-.666c.154.128.333.23.563.23a.755.755 0 0 0 .768-.768.684.684 0 0 0-.077-.307l4.89-3.251c.154.128.333.23.563.23.435 0 .768-.333.768-.768s-.333-.768-.768-.768zm-6.835-2.995c.026.077.077.128.128.205L15.386 6.4l-2.125-.614 2.944-.845zm-.973 1.664-2.867 3.84-1.024-1.229a.957.957 0 0 0 .179-.512.755.755 0 0 0-.768-.768c-.077 0-.154 0-.23.026l-.614-1.229 2.893-.819 2.432.691zm-4.07 7.68-.666-.435 3.277-1.306.666.794-3.277.947zm3.481-.717.307.384-2.15 1.434-1.331-.896 3.174-.922zm-4.403.41.64.435-1.459.41.538-.742.282-.102zm-1.382-1.204 1.664-3.328a.699.699 0 0 0 .23.026c.128 0 .282-.026.384-.102l1.075 1.28-2.176 2.893-1.178-.768zm1.408.896 2.125-2.816 1.229 1.485-3.354 1.331zm-.871-8.729 2.944.845-2.534.717-.64-1.28a.799.799 0 0 0 .23-.282zm-1.254.205c.154.128.333.23.563.23.077 0 .154 0 .23-.026l.589 1.203-6.221 1.792 4.838-3.2zm-4.89 3.865a.611.611 0 0 0 .077-.307v-.077l6.323-1.818.64 1.28c-.179.128-.307.358-.307.614s.128.486.307.614l-1.638 3.277L3.251 9.01zm5.53 3.994 1.126.742-.102.128-1.869.717.845-1.587zm-.999 1.945 1.715-.691-.486.666-1.408.41.179-.384zm.948.333-1.843 2.458-.461-.102.998-1.997 1.306-.358zm-1.306-.179-.154.307-2.33.666 2.483-.973zm-4.096 1.843v-.128l3.763-1.075-.922 1.843-2.842-.64zm2.995.922.435.102-1.382 1.818.947-1.92zm-1.152 2.585 1.843-2.458 1.382.307-3.226 2.15zm3.507-2.329-1.51-.333 1.971-2.637 1.997-.563 1.434.947-3.891 2.586zm.359.077 3.763-2.509 7.501 4.992-11.264-2.483zm11.289 2.201-7.296-4.89 2.074-1.382 5.222 6.272zm-5.171-6.605-.256-.282 1.229-.358-.973.64zm1.613-1.766a.795.795 0 0 0-.64.768v.077l-1.408.41-.691-.845 2.739-1.101v.691zm0-.947-2.893 1.152-1.331-1.587 2.944-3.968 1.28.358v4.045zm0-4.301-1.101-.307.87-1.178.23.077v1.408zm.691 5.478a1.183 1.183 0 0 0-.435-.23v-.794l4.915-1.971-4.48 2.995zm-.435-1.28V7.116l5.248 1.51v.077c0 .051.026.102.026.154l-5.274 2.125z"/>
    </symbol>
    <symbol id="icon-pattern5" viewBox="0 0 26 32">
      <path d="M23.04 16.128c-.077 0-.154 0-.205.026l-3.43-6.835a.763.763 0 0 0 .307-.614.755.755 0 0 0-.768-.768c-.282 0-.512.154-.666.358L9.446 4.762c.026-.051.026-.102.026-.154 0-.435-.333-.768-.768-.768s-.768.333-.768.768c0 .102.026.23.077.307l-4.89 3.251c-.154-.128-.333-.23-.563-.23-.435 0-.768.333-.768.768s.333.768.768.768c.077 0 .154 0 .23-.051l2.688 5.376-2.355 1.562c-.154-.128-.333-.23-.563-.23-.435 0-.768.333-.768.768s.333.768.768.768c.384 0 .717-.282.768-.64h3.251l1.664 3.354a.763.763 0 0 0-.307.614c0 .435.333.768.768.768s.768-.333.768-.768v-.077l4.966-1.408 1.766 1.178a.611.611 0 0 0-.077.307c0 .435.333.768.768.768s.768-.333.768-.768-.333-.768-.768-.768l-.23-1.382 5.683-1.613a.77.77 0 0 0 .691.435c.435 0 .768-.333.768-.768s-.333-.768-.768-.768zm-19.712.64c-.026-.077-.051-.128-.077-.205l2.33-1.536.87 1.741H3.328zm5.248 3.456c-.051 0-.077.026-.102.026l-1.613-3.226h1.715v3.2zm0-3.456H6.733l-.947-1.869 2.79-1.869v3.738zm0-4.045-2.893 1.92-2.662-5.325a.602.602 0 0 0 .205-.23l5.35 2.15v1.485zm0-1.766L3.302 8.858c.026-.051.026-.102.026-.154a.684.684 0 0 0-.077-.307l4.89-3.251a.724.724 0 0 0 .435.23v5.581zm.794-5.939 8.832 3.533c-.026.051-.026.102-.026.154a.69.69 0 0 0 .154.435l-1.434 1.434-1.434-1.434a.699.699 0 0 0 .154-.435c0-.435-.333-.768-.768-.768s-.768.333-.768.768c0 .102.026.23.077.307l-2.33 1.536-2.662-5.325a.769.769 0 0 0 .205-.205zm2.56 5.785 2.355-1.562c.154.128.333.23.563.23l.435 2.688-1.075 1.075-1.331-.538-.947-1.894zm.614 1.741-2.022-.794 1.203-.819.819 1.613zm1.485.896-.512.512-.461-.896.973.384zm.256.102 1.306.538.768 4.608-.435.128-2.304-4.608.666-.666zm.205-.204.87-.845.205 1.28-1.075-.435zm.998-1.408-.41-2.509c.077-.026.154-.051.205-.102l1.408 1.408-1.203 1.203zM8.832 5.376c.026-.026.077-.026.077-.026l2.688 5.376-1.382.922-1.382-.563V5.376zm0 5.965 1.126.461-1.126.768v-1.229zm-.026 1.561 1.434-.947 2.458.973.614 1.229-2.125 2.125a.699.699 0 0 0-.435-.154c-.384 0-.717.282-.768.64v.026H8.806v-3.891zm.589 7.757a.76.76 0 0 0-.563-.435v-3.2h1.152c.077.358.384.64.768.64.23 0 .41-.102.563-.256l2.816 1.894-4.736 1.357zm2.048-3.456a.611.611 0 0 0 .077-.307c0-.154-.077-.307-.154-.435l2.048-2.099 2.253 4.48-1.229.358-2.995-1.997zm4.864 3.277-1.587-1.075 1.075-.307.64 1.28c-.026.026-.077.051-.128.102zm-.23-1.459.358-.102.205 1.254-.563-1.152zm6.195-2.125v.077l-5.632 1.638-.742-4.429 6.4 2.56c-.026.051-.026.102-.026.154zm.128-.41-6.554-2.611-.282-1.613 1.331-1.331 5.53 5.53c-.026 0-.026.026-.026.026zm-5.325-5.734 1.434-1.434a.699.699 0 0 0 .435.154c.077 0 .154 0 .23-.026l3.405 6.81-5.504-5.504z"/>
    </symbol>
    <symbol id="icon-pattern6" viewBox="0 0 26 32">
      <path d="M20.992 12.032c-.077 0-.154 0-.23.026l-3.405-6.835a.763.763 0 0 0 .307-.614c0-.435-.333-.768-.768-.768s-.768.333-.768.768a.69.69 0 0 0 .154.435l-4.813 4.813-2.304-4.634a.763.763 0 0 0 .307-.614c0-.435-.333-.768-.768-.768s-.768.333-.768.768a.72.72 0 0 0 .333.614L2.791 16.154c-.077-.026-.154-.026-.23-.026-.435 0-.768.333-.768.768s.333.768.768.768a.77.77 0 0 0 .691-.435l6.298 1.792-.614 1.229c-.077-.026-.154-.026-.23-.026-.435 0-.768.333-.768.768s.333.768.768.768c.384 0 .717-.282.768-.64h6.656c.077.358.384.64.768.64.435 0 .768-.333.768-.768s-.333-.768-.768-.768c-.154 0-.307.077-.435.154l-2.637-2.637.461-.307c.154.128.333.23.563.23.435 0 .768-.333.768-.768s-.333-.768-.768-.768c-.077 0-.154 0-.23.026l-.819-1.638 6.477-1.434c.128.282.384.486.717.486.435 0 .768-.333.768-.768s-.333-.768-.768-.768zm-4.557-6.784-1.357 2.714c-.077-.026-.154-.026-.23-.026a.755.755 0 0 0-.768.768c0 .256.128.486.307.614L12.8 12.492l-1.203-2.406 4.838-4.838zm-2.995 9.114-1.434.307.794-1.587.64 1.28zm-.794-1.588-.922 1.869-2.33-1.536a.611.611 0 0 0 .077-.307c0-.154-.077-.307-.154-.435l2.074-2.099 1.254 2.509zm-1.254 2.535-.205-.205.358-.077-.154.282zm2.022 2.381-2.278 1.536-1.229-.358 1.562-3.123 1.946 1.946zm-2.432-2.791-1.28-1.28 1.766 1.178-.486.102zm-2.15-9.523c.026-.026.077-.026.077-.051l2.355 4.71-2.125 2.125a.866.866 0 0 0-.307-.128V5.376zM3.021 16.282 8.474 5.351c.026 0 .077.026.102.026v6.656a.795.795 0 0 0-.64.768c0 .435.333.768.768.768a.86.86 0 0 0 .435-.128l1.536 1.536-7.398 1.638a.835.835 0 0 0-.256-.333zm.307.691v-.128l7.578-1.664.384.384-1.613 3.226-6.349-1.818zm5.939 3.507c-.026-.051-.077-.077-.102-.102l.614-1.28 1.075.307-1.587 1.075zm.205.384c-.026-.077-.051-.128-.026-.205l1.766-1.178 4.787 1.382H9.471zm6.81-.307c-.026.026-.051.077-.102.102l-4.736-1.357 2.15-1.434 2.688 2.688zm-2.125-3.354-.512.358-2.048-2.048.23-.461 2.33 1.536c-.051.077-.077.205-.077.307s.026.23.077.307zm.23-.921c-.026.026-.077.051-.102.102l-2.202-1.459 1.459-.333.845 1.69zm5.837-3.482v.051l-6.528 1.434-.742-1.485 1.664-3.354a.699.699 0 0 0 .23.026c.23 0 .41-.102.563-.23l4.89 3.251a.611.611 0 0 0-.077.307zm.205-.538-4.89-3.251a.611.611 0 0 0 .077-.307.72.72 0 0 0-.333-.614l1.382-2.739c.077.026.154.026.23.026s.154 0 .23-.026l3.405 6.835c-.026.026-.077.051-.102.077z"/>
    </symbol>
    <symbol id="icon-pattern7" viewBox="0 0 26 32">
      <path d="M17.971 9.523c-.051-.077-.102-.128-.154-.205l-4.045 2.662c.051.077.102.128.154.205l4.045-2.662zM11.443 9.779a.907.907 0 0 1-.23.102l.922 1.818a.907.907 0 0 1 .23-.102l-.922-1.818zM3.789 9.062c-.026.077-.051.154-.102.23l7.885 3.149c.026-.077.051-.154.102-.23L3.789 9.062zM13.568 12.8a.768.768 0 1 1-1.536 0 .768.768 0 0 1 1.536 0zM13.261 19.789c.077.026.154.077.23.102l5.018-10.01c-.077-.026-.154-.077-.23-.102l-5.018 10.01zM13.978 5.094a1.037 1.037 0 0 1-.128.23l3.968 2.79c.051-.077.077-.154.154-.205l-3.994-2.816zM19.712 8.704a.768.768 0 1 1-1.536 0 .768.768 0 0 1 1.536 0z"/>
      <path d="M21.914 16.307c.051-.077.077-.154.154-.205l-10.189-6.81c-.051.077-.077.154-.154.205l10.189 6.81zM12.339 5.811c-.077-.026-.154-.077-.23-.102l-.922 1.818c.077.026.154.077.23.102l.922-1.818zM11.52 8.704a.768.768 0 1 1-1.536 0 .768.768 0 0 1 1.536 0zM13.926 20.403a.907.907 0 0 1 .102.23l7.885-3.149a.907.907 0 0 1-.102-.23l-7.885 3.149zM21.786 16.768H7.911c0 .051.026.077.026.128s0 .077-.026.128h13.85c0-.051-.026-.077-.026-.128s.026-.077.051-.128zM23.808 16.896a.768.768 0 1 1-1.536 0 .768.768 0 0 1 1.536 0zM7.782 17.485c-.051.077-.077.154-.154.205l4.045 2.688c.051-.077.077-.154.154-.205l-4.045-2.688z"/>
      <path d="M9.395 13.875a.907.907 0 0 1-.23.102l2.97 5.914a.907.907 0 0 1 .23-.102l-2.97-5.914zM13.568 20.992a.768.768 0 1 1-1.536 0 .768.768 0 0 1 1.536 0zM8.243 14.003c-.077-.026-.154-.077-.23-.102l-.922 1.818c.077.026.154.077.23.102l.922-1.818zM7.424 16.896a.768.768 0 1 1-1.536 0 .768.768 0 0 1 1.536 0zM3.661 9.318a1.333 1.333 0 0 1-.154.205l3.994 2.79c.026-.077.077-.154.128-.23L3.661 9.318zM9.472 12.8a.768.768 0 1 1-1.536 0 .768.768 0 0 1 1.536 0zM11.674 5.197a.907.907 0 0 1-.102-.23L3.687 8.116a.907.907 0 0 1 .102.23l7.885-3.149zM3.328 8.704a.768.768 0 1 1-1.536 0 .768.768 0 0 1 1.536 0zM13.568 4.608a.768.768 0 1 1-1.536 0 .768.768 0 0 1 1.536 0z"/>
    </symbol>
    <symbol id="icon-pattern8" viewBox="0 0 26 32">
      <path d="M9.677 20.173c.051.077.102.128.154.205l4.045-2.688c-.051-.077-.102-.128-.154-.205l-4.045 2.688zM9.395 5.683a.907.907 0 0 1-.23.102l5.018 10.01a.907.907 0 0 1 .23-.102L9.395 5.683zM9.83 13.389c-.051.077-.077.154-.154.205l4.045 2.688c.051-.077.077-.154.154-.205L9.83 13.389zM15.616 16.896a.768.768 0 1 1-1.536 0 .768.768 0 0 1 1.536 0zM15.974 9.293c-.051.077-.077.154-.154.205l4.045 2.688c.051-.077.077-.154.154-.205l-4.045-2.688z"/>
      <path d="M3.763 16.486a.75.75 0 0 1 .051.256l15.949-3.558a.75.75 0 0 1-.051-.256L3.763 16.486zM17.587 5.683a.907.907 0 0 1-.23.102l2.97 5.914a.907.907 0 0 1 .23-.102l-2.97-5.914zM21.76 12.8a.768.768 0 1 1-1.536 0 .768.768 0 0 1 1.536 0z"/>
      <path d="M9.165 19.789c.077.026.154.077.23.102l5.018-10.01c-.077-.026-.154-.077-.23-.102l-5.018 10.01zM16.435 5.811c-.077-.026-.154-.077-.23-.102l-.922 1.818c.077.026.154.077.23.102l.922-1.818zM15.616 8.704a.768.768 0 1 1-1.536 0 .768.768 0 0 1 1.536 0zM15.616 20.992c0-.051 0-.077.026-.128H9.959c0 .051.026.077.026.128s0 .077-.026.128h5.658v-.128zM9.472 20.992a.768.768 0 1 1-1.536 0 .768.768 0 0 1 1.536 0z"/>
      <path d="M3.814 17.126c-.026.077-.051.179-.077.256l11.904 3.405c.026-.077.051-.179.077-.256L3.814 17.126zM17.664 20.992a.768.768 0 1 1-1.536 0 .768.768 0 0 1 1.536 0zM8.243 5.811c-.077-.026-.154-.077-.23-.102l-4.992 9.984c.077.026.154.077.23.102l4.992-9.984zM3.328 16.896a.768.768 0 1 1-1.536 0 .768.768 0 0 1 1.536 0zM9.472 4.608a.768.768 0 1 1-1.536 0 .768.768 0 0 1 1.536 0zM17.664 4.608a.768.768 0 1 1-1.536 0 .768.768 0 0 1 1.536 0zM9.498 13.798l6.4 6.4a.588.588 0 0 1 .179-.179l-6.4-6.4-.179.179zM8.832 11.546V5.863c-.051.026-.077.026-.128.026s-.077 0-.128-.026v5.658c.051 0 .077-.026.128-.026s.077.026.128.051zM9.702 12.006l6.4-6.4a.588.588 0 0 1-.179-.179l-6.4 6.4.179.179zM9.472 12.8a.768.768 0 1 1-1.536 0 .768.768 0 0 1 1.536 0z"/>
    </symbol>
    <symbol id="icon-pattern9" viewBox="0 0 26 32">
      <path d="M9.395 5.683a.907.907 0 0 1-.23.102l.922 1.818a.907.907 0 0 1 .23-.102l-.922-1.818zM20.275 19.942 11.673 9.6c-.051.051-.128.128-.205.154l8.602 10.342c.077-.051.128-.128.205-.154zM11.52 8.704a.768.768 0 1 1-1.536 0 .768.768 0 0 1 1.536 0zM3.533 7.885c.051.077.102.128.154.205l4.045-2.688c-.051-.077-.102-.128-.154-.205L3.533 7.885zM21.786 8.474c.026-.077.051-.179.077-.256L9.959 4.839c-.026.077-.051.179-.077.256l11.904 3.379zM9.472 4.608a.768.768 0 1 1-1.536 0 .768.768 0 0 1 1.536 0zM20.019 20.173 3.686 9.293c-.051.077-.077.154-.154.205l16.333 10.88c.051-.051.077-.128.154-.205z"/>
      <path d="M15.718 5.069a3.295 3.295 0 0 1-.077-.256L3.737 8.243c.026.077.051.154.077.256l11.904-3.43zM3.328 8.704a.768.768 0 1 1-1.536 0 .768.768 0 0 1 1.536 0zM21.76 20.992a.768.768 0 1 1-1.536 0 .768.768 0 0 1 1.536 0zM17.024 11.546V5.863c-.051.026-.077.026-.128.026s-.077 0-.128-.026v5.658c.051 0 .077-.026.128-.026s.077.026.128.051zM22.067 9.523c-.051-.077-.102-.128-.154-.205l-4.045 2.662c.051.077.102.128.154.205l4.045-2.662zM17.664 12.8a.768.768 0 1 1-1.536 0 .768.768 0 0 1 1.536 0zM17.664 4.608a.768.768 0 1 1-1.536 0 .768.768 0 0 1 1.536 0zM23.808 8.704a.768.768 0 1 1-1.536 0 .768.768 0 0 1 1.536 0zM16.23 5.709a1.333 1.333 0 0 1-.205-.154L5.273 19.917c.077.051.154.102.205.154L16.23 5.709z"/>
      <path d="M10.291 9.907c-.077-.026-.154-.077-.23-.102l-4.992 9.984c.077.026.154.077.23.102l4.992-9.984zM15.923 13.619c-.051-.077-.102-.128-.154-.205L5.58 20.172c.051.077.102.128.154.205l10.189-6.758zM5.376 20.992a.768.768 0 1 1-1.536 0 .768.768 0 0 1 1.536 0z"/>
      <path d="m3.763 17.306 15.949 3.558a.93.93 0 0 1 .051-.256L3.814 17.05c0 .077-.026.154-.051.256zM21.914 9.293a.907.907 0 0 1-.102-.23L3.687 16.308a.907.907 0 0 1 .102.23l18.125-7.245z"/>
      <path d="m3.814 16.666 11.904-3.405a3.295 3.295 0 0 1-.077-.256l-11.904 3.43a.416.416 0 0 1 .077.23zM3.328 16.896a.768.768 0 1 1-1.536 0 .768.768 0 0 1 1.536 0z"/>
    </symbol>
    <symbol id="icon-pattern10" viewBox="0 0 26 32">
      <path d="M15.616 8.704a.768.768 0 1 1-1.536 0 .768.768 0 0 1 1.536 0zM19.712 8.704a.768.768 0 1 1-1.536 0 .768.768 0 0 1 1.536 0zM17.715 8.346c.026-.077.051-.154.102-.23L9.932 4.967c-.026.077-.051.154-.102.23l7.885 3.149zM9.472 4.608a.768.768 0 1 1-1.536 0 .768.768 0 0 1 1.536 0zM7.731 5.427c-.051-.077-.102-.128-.154-.205L3.532 7.884c.051.077.102.128.154.205l4.045-2.662zM3.328 8.704a.768.768 0 1 1-1.536 0 .768.768 0 0 1 1.536 0zM13.875 9.523c-.051-.077-.102-.128-.154-.205L3.532 16.076c.051.077.102.128.154.205l10.189-6.758zM3.328 16.896a.768.768 0 1 1-1.536 0 .768.768 0 0 1 1.536 0z"/>
      <path d="M8.832 19.738V5.863c-.051.026-.077.026-.128.026s-.077 0-.128-.026v13.85c.051 0 .077-.026.128-.026s.077.026.128.051zM3.251 9.779a.907.907 0 0 1-.23.102l5.018 10.01a.907.907 0 0 1 .23-.102L3.251 9.779zM9.472 20.992a.768.768 0 1 1-1.536 0 .768.768 0 0 1 1.536 0zM11.75 16.102l6.4-6.4a.588.588 0 0 1-.179-.179l-6.4 6.4.179.179z"/>
      <path d="M9.498 16.768H3.815c0 .051.026.077.026.128s0 .077-.026.128h5.658c0-.051-.026-.077-.026-.128s.026-.077.051-.128zM11.52 16.896a.768.768 0 1 1-1.536 0 .768.768 0 0 1 1.536 0zM22.246 15.898l-6.4-6.4a.588.588 0 0 1-.179.179l6.4 6.4.179-.179zM19.635 9.779a.907.907 0 0 1-.23.102l2.97 5.914a.907.907 0 0 1 .23-.102l-2.97-5.914zM3.789 9.062c-.026.077-.051.154-.102.23l18.125 7.245c.026-.077.051-.154.102-.23L3.789 9.062zM9.882 20.531c.026.077.051.154.077.256l11.904-3.405a3.295 3.295 0 0 1-.077-.256L9.882 20.531zM23.808 16.896a.768.768 0 1 1-1.536 0 .768.768 0 0 1 1.536 0z"/>
      <path d="M15.181 9.933c-.077.026-.154.026-.256.051l1.638 9.779c.077-.026.154-.026.256-.051l-1.638-9.779zM9.395 5.683a.907.907 0 0 1-.23.102l7.066 14.106a.907.907 0 0 1 .23-.102L9.395 5.683zM11.878 17.485c-.051.077-.077.154-.154.205l4.045 2.688c.051-.077.077-.154.154-.205l-4.045-2.688zM17.664 20.992a.768.768 0 1 1-1.536 0 .768.768 0 0 1 1.536 0z"/>
    </symbol>
    <symbol id="icon-email" viewBox="0 0 26 32">
      <path d="M21.185 6.815H4.889a2.222 2.222 0 0 0-2.222 2.222v10.37c0 1.227.995 2.222 2.222 2.222h16.296a2.222 2.222 0 0 0 2.222-2.222V9.037a2.222 2.222 0 0 0-2.222-2.222zm-.592 1.481-7.143 4.762a.737.737 0 0 1-.822 0L5.482 8.296zm.592 11.852H4.889a.74.74 0 0 1-.741-.741V9.185l7.657 5.105a2.22 2.22 0 0 0 2.465 0l7.657-5.105v10.222a.742.742 0 0 1-.741.741z"/>
    </symbol>
    <symbol id="icon-heart" viewBox="0 0 26 32">
      <path d="m13.807 8.825-.77.77-.77-.77a4.01 4.01 0 0 0-5.665 0c-.756.756-1.173 1.764-1.173 2.832s.418 2.077 1.171 2.83l6.099 6.166a.476.476 0 0 0 .674 0l6.096-6.163c.756-.756 1.173-1.764 1.173-2.832s-.418-2.077-1.173-2.832a4.005 4.005 0 0 0-5.662-.001zm4.992 4.994-5.762 5.826-5.765-5.826a3.058 3.058 0 0 1 0-4.323c.595-.595 1.38-.893 2.162-.893s1.567.299 2.162.893l1.105 1.105a.474.474 0 0 0 .67 0l1.105-1.105a3.058 3.058 0 0 1 4.323 0 3.055 3.055 0 0 1 0 4.323z"/>
    </symbol>
    <symbol id="icon-black-heart" viewBox="0 0 26 32">
      <path d="M13.037 9.173a4.284 4.284 0 1 1 6.058 6.051l-5.694 5.291a.535.535 0 0 1-.73 0l-5.694-5.291a4.284 4.284 0 1 1 6.058-6.051z"/>
    </symbol>
    <symbol id="icon-menu" viewBox="0 0 26 32">
      <path d="M3.328 4.608a1.28 1.28 0 1 0 0 2.56h18.944a1.28 1.28 0 1 0 0-2.56zm0 6.912a1.28 1.28 0 1 0 0 2.56h18.944a1.28 1.28 0 1 0 0-2.56zm0 6.912a1.28 1.28 0 1 0 0 2.56h18.944a1.28 1.28 0 1 0 0-2.56z"/>
    </symbol>
    <symbol id="icon-pattern12" viewBox="0 0 26 32">
      <path d="M15.539 2.918c.077 0 .154.026.205.102.102.128.077.282-.051.384l-.051.026-.026.026h-.077a.234.234 0 0 1-.205-.102c-.102-.128-.077-.282.051-.384.026-.051.102-.051.154-.051zm4.967 2.484c.077 0 .154.026.205.102a.199.199 0 0 1 .051.205c0 .077-.051.128-.102.179s-.128.051-.179.051a.292.292 0 0 1-.205-.077s0-.026-.026-.026l-.026-.051v-.051c-.026-.077 0-.205.102-.282.077-.051.128-.051.179-.051zm-3.687 1.689c.051 0 .128 0 .205.077l.026.026.026.051v.051c.026.077 0 .154-.051.23l-.026.051-.051.026c-.026.026-.077.026-.102.026h-.051l-.051-.026c-.051-.026-.102-.051-.128-.077s-.051-.077-.051-.102v-.102c0-.051.026-.102.077-.154l.026-.026.051-.026h.051c.026-.026.051-.026.051-.026zm-5.632.461c.077 0 .154.026.205.102.026.026.026.051.051.077l.026.051v.051c0 .051-.026.128-.102.205-.051.051-.128.051-.179.051a.234.234 0 0 1-.205-.102c-.102-.128-.077-.282.051-.384.026-.051.102-.051.154-.051zm8.474 3.123c.077 0 .154.026.205.102.102.128.077.282-.051.384-.051.051-.128.051-.179.051a.234.234 0 0 1-.205-.102.306.306 0 0 1 0-.358l.026-.051.051-.026h.154zm-9.344 1.459c.026 0 .051 0 .102.026a.266.266 0 0 1 .154.128.28.28 0 0 1 0 .205c-.051.102-.154.179-.256.179h-.103l-.051-.026-.051-.051a.317.317 0 0 1-.077-.282.316.316 0 0 1 .282-.179zm5.478.436.051.026a.345.345 0 0 1 .102.077c.051.077.077.154.051.256 0 .051-.051.102-.102.154 0 0-.026 0-.026.026l-.051.026h-.077c-.102 0-.205-.051-.23-.128-.051-.077-.026-.179-.026-.205.026-.051.051-.102.102-.154a.364.364 0 0 1 .179-.051l.026-.026zm-11.008.153c.026 0 .051 0 .102.026.154.051.23.205.179.358 0 0 0 .026-.026.051l-.026.051-.051.026a.364.364 0 0 1-.179.051c-.026 0-.051 0-.077-.026a.276.276 0 0 1-.179-.358c.026-.128.128-.179.256-.179zm16 1.587c.102 0 .205.051.23.154a.289.289 0 0 1-.102.384h-.128a.234.234 0 0 1-.205-.102l-.051-.102a.334.334 0 0 1 .128-.333h.128zM8.141 15.539h.077s.026 0 .026.026l.051.026.026.051c.051.051.077.154.077.23v.051l-.026.051-.077.077-.051.026h-.128c-.026 0-.051 0-.077-.026-.026 0-.077-.026-.102-.077l-.051-.026-.026-.051c-.026-.051-.026-.102 0-.179 0 0 0-.026.026-.026l.026-.051.026-.026a.292.292 0 0 1 .205-.077zm8.653.947c.077 0 .154.026.205.102l.051.102c0 .026.026.077 0 .102v.051l-.026.051a.2.2 0 0 1-.102.102c-.026.026-.077.026-.102.026h-.051l-.051-.026c-.051-.026-.102-.051-.154-.102 0 0 0-.026-.026-.026l-.026-.051v-.051c0-.102.051-.179.128-.23 0 0 .026 0 .026-.026l.051-.026h.077zm-4.352.564c.026 0 .051 0 .102.026a.212.212 0 0 1 .154.179s0 .026.026.051l.026.051v.051a.268.268 0 0 1-.128.23c-.051.026-.077.026-.128.026a.268.268 0 0 1-.23-.128s0-.026-.026-.026c-.026-.026-.026-.102-.026-.154v-.051l.026-.051c0-.154.102-.205.205-.205zm9.548 1.433c.102 0 .205.051.23.154.051.051.051.128.051.205-.026.077-.077.128-.128.154s-.077.026-.128.026c-.102 0-.205-.051-.23-.154-.026-.051-.026-.102-.026-.179v-.051l.026-.051a.2.2 0 0 1 .102-.102h.102zm-18.38.487c.026 0 .051 0 .102.026.026 0 .051.026.077.051l.051.026.026.051c.026.051.051.128.026.23-.051.102-.154.179-.256.179-.026 0-.051 0-.102-.026a.266.266 0 0 1-.154-.128.28.28 0 0 1 0-.205c0-.128.102-.205.23-.205zm6.553 1.792c.026 0 .051 0 .077.026a.266.266 0 0 1 .154.128.28.28 0 0 1 0 .205c-.051.102-.154.179-.256.179-.026 0-.051 0-.102-.026a.266.266 0 0 1-.154-.128.28.28 0 0 1 0-.205c.026-.051.051-.102.102-.128l.051-.026h.051c.026-.026.051-.026.077-.026zm6.144 1.382.051.026c.051 0 .128.051.179.128.026.077.051.128.026.205s-.077.128-.128.154c-.051.026-.077.026-.128.026-.102 0-.205-.051-.23-.154a.289.289 0 0 1 .102-.384c.026 0 .051-.026.077-.026l.051.026zm-.768-19.738a.716.716 0 0 0-.486.179c-.333.282-.41.768-.128 1.101a.763.763 0 0 0 .614.307h.077l.794 2.739c-.026.026-.051.026-.077.051a.797.797 0 0 0-.282.486l-4.147.333a1.037 1.037 0 0 0-.128-.23.763.763 0 0 0-1.1-.128c-.333.282-.41.768-.128 1.101a.763.763 0 0 0 1.1.128.831.831 0 0 0 .307-.563l4.096-.333a.869.869 0 0 0 .154.307.717.717 0 0 0 .358.256l-.819 3.942a.837.837 0 0 0-.486.154.914.914 0 0 0-.282.41.858.858 0 0 0 .051.614c.154.256.41.41.691.41h.051l.691 2.406c-.026 0-.051.026-.077.026a.808.808 0 0 0-.41.691l-2.816.333c0-.026-.026-.026-.026-.051a.817.817 0 0 0-.461-.461.895.895 0 0 0-.256-.051.765.765 0 0 0-.666.384l-2.842-.998a.84.84 0 0 0-.205-.64l1.331-2.15s.026 0 .026.026a.895.895 0 0 0 .256.051c.333 0 .64-.205.742-.538a.77.77 0 0 0-.486-.998.895.895 0 0 0-.256-.051.767.767 0 0 0-.742.538.788.788 0 0 0 .179.819l-1.306 2.099c-.026 0-.051-.026-.077-.026a.895.895 0 0 0-.256-.051.828.828 0 0 0-.538.205l-2.125-1.869c.026-.051.051-.077.051-.128a.77.77 0 0 0-.486-.998.895.895 0 0 0-.256-.051.767.767 0 0 0-.742.538.77.77 0 0 0 .486.998.895.895 0 0 0 .256.051.784.784 0 0 0 .486-.154l2.15 1.894c0 .026-.026.051-.026.077-.077.179-.051.384.026.563l-3.302 2.483c-.077-.051-.154-.102-.23-.128s-.179-.051-.256-.051a.767.767 0 0 0-.742.538.77.77 0 0 0 .486.998.895.895 0 0 0 .256.051c.333 0 .64-.205.742-.538a.735.735 0 0 0-.051-.614l3.277-2.509a.654.654 0 0 0 .282.179.895.895 0 0 0 .256.051c.051 0 .128 0 .179-.026l1.434 3.763a.701.701 0 0 0-.307.41.77.77 0 0 0 .486.998.895.895 0 0 0 .256.051c.333 0 .64-.205.742-.538a.77.77 0 0 0-.486-.998.75.75 0 0 0-.256-.051h-.128l-1.434-3.789a.602.602 0 0 0 .205-.23l2.842.998a.735.735 0 0 0 .077.461c0 .026.026.051.026.051.154.256.41.41.691.41a.73.73 0 0 0 .384-.102c.23-.102.384-.358.41-.614l2.842-.333c0 .026.026.051.026.077a.743.743 0 0 0 .435.358l-.358 4.147c-.077.026-.179.051-.256.077-.384.205-.512.691-.307 1.075.154.256.41.41.691.41a.73.73 0 0 0 .384-.102c.384-.205.512-.691.307-1.075a.73.73 0 0 0-.486-.384l.358-4.096a.57.57 0 0 0 .333-.102.885.885 0 0 0 .307-.307l3.763 1.485a.896.896 0 0 0 .077.512c.154.256.41.41.691.41a.73.73 0 0 0 .384-.102c.384-.205.512-.691.307-1.075a.808.808 0 0 0-.691-.41c-.128 0-.256.026-.384.102s-.205.154-.282.282l-3.763-1.485c0-.102 0-.205-.026-.307l2.637-1.459a.808.808 0 0 0 .589.282.73.73 0 0 0 .384-.102c.384-.205.512-.691.307-1.075a.808.808 0 0 0-.691-.41.73.73 0 0 0-.384.102.795.795 0 0 0-.384.922l-2.637 1.459a.808.808 0 0 0-.589-.282l-.742-2.432h.026a.73.73 0 0 0 .384-.486.806.806 0 0 0-.128-.717.889.889 0 0 0-.307-.23l.845-3.968a.684.684 0 0 0 .307-.077l1.869 2.381a.808.808 0 0 0-.026.998.763.763 0 0 0 1.1.128c.333-.282.41-.768.128-1.101a.763.763 0 0 0-.614-.307.905.905 0 0 0-.358.077l-1.869-2.381a.822.822 0 0 0 .179-.64l2.278-1.101s0 .026.026.026a.763.763 0 0 0 1.1.128c.333-.282.41-.768.128-1.101a.763.763 0 0 0-1.1-.128.81.81 0 0 0-.282.794l-2.253 1.101c-.026-.026-.026-.051-.026-.051a.763.763 0 0 0-.614-.307h-.128l-.794-2.714a.345.345 0 0 0 .102-.077c.333-.282.41-.768.128-1.101a.85.85 0 0 0-.64-.307z"/>
    </symbol>
    <symbol id="icon-arrow" viewBox="0 0 26 32">
      <path d="M18.56 24.32H7.04a5.77 5.77 0 0 1-5.76-5.76V7.04a5.77 5.77 0 0 1 5.76-5.76h11.52a5.77 5.77 0 0 1 5.76 5.76v11.52a5.77 5.77 0 0 1-5.76 5.76zm-4.787-5.837V9.6l2.074 2.074c.41.41 1.05.41 1.459 0 .205-.205.307-.461.307-.717s-.102-.512-.307-.717l-3.84-3.84a1.02 1.02 0 0 0-1.459 0l-3.789 3.814c-.41.41-.41 1.05 0 1.459s1.05.41 1.459 0l2.074-2.074v8.883c0 .563.461 1.024 1.024 1.024s.998-.461.998-1.024z"/>
    </symbol>
  </defs>
</svg>
